PathFileType	4	(X/Y/Z)	output.trc
DataRate	CameraRate	NumFrames	NumMarkers	Units	OrigDataRate	OrigDataStartFrame	OrigNumFrames
100	100	18	23	m	100	2792	5582
Frame#	Time	C7			T8			EL			EM			US			RS			AA			Fore_Clus_1			Fore_Clus_2			Fore_Clus_3			Fore_Clus_4			Hum_Clus_1			Hum_Clus_2			Hum_Clus_3			Hum_Clus_4			Thor_Clus_1			Thor_Clus_2			Thor_Clus_3			Thor_Clus_4			IJ			PX			GH			Thor_Clus_5		
		X1	Y1	Z1	X2	Y2	Z2	X3	Y3	Z3	X4	Y4	Z4	X5	Y5	Z5	X6	Y6	Z6	X7	Y7	Z7	X8	Y8	Z8	X9	Y9	Z9	X10	Y10	Z10	X11	Y11	Z11	X12	Y12	Z12	X13	Y13	Z13	X14	Y14	Z14	X15	Y15	Z15	X16	Y16	Z16	X17	Y17	Z17	X18	Y18	Z18	X19	Y19	Z19	X20	Y20	Z20	X21	Y21	Z21	X22	Y22	Z22	X23	Y23	Z23
2791	27.910000	-0.066449	1.369147	-0.103317	-0.083981	1.162937	-0.145252	-0.230148	1.027554	0.129632	-0.206965	1.002513	0.081310	-0.045528	1.024612	0.275906	-0.036910	1.072496	0.258762	-0.192392	1.293023	0.033804	-0.105005	1.036954	0.276798	-0.061035	1.044780	0.308384	-0.058375	1.070616	0.297995	-0.099838	1.077870	0.258820	-0.231973	1.147926	0.127612	-0.261325	1.141851	0.075261	-0.262244	1.202671	0.056424	-0.226402	1.217031	0.101277	0.057269	1.274666	0.019222	0.019090	1.222224	0.073388	0.019874	1.271603	0.043348	0.072575	1.225622	0.037869	-0.001607	1.291905	-0.011887	0.018954	1.096180	0.024387	-0.158812	1.265191	0.002936	0.011926	1.243600	0.064781
2792	27.920000	-0.066903	1.369014	-0.103248	-0.084428	1.162766	-0.144998	-0.228861	1.027559	0.130791	-0.206359	1.002517	0.082149	-0.041166	1.024504	0.273493	-0.032710	1.072298	0.256018	-0.192339	1.292887	0.034335	-0.100722	1.037082	0.275544	-0.056127	1.044838	0.306271	-0.053604	1.070674	0.295802	-0.095648	1.077888	0.257300	-0.230521	1.147937	0.128876	-0.260593	1.141966	0.076919	-0.261616	1.202783	0.058123	-0.225172	1.217048	0.102418	0.057353	1.274763	0.018971	0.019264	1.222262	0.073280	0.019975	1.271556	0.043168	0.072665	1.225806	0.037702	-0.001704	1.291874	-0.011985	0.019114	1.096186	0.024342	-0.158816	1.265175	0.003339	0.012094	1.243644	0.064719
2793	27.930000	-0.067337	1.368887	-0.103175	-0.084865	1.162603	-0.144744	-0.227552	1.027527	0.131883	-0.205715	1.002497	0.082933	-0.036995	1.024384	0.271121	-0.028697	1.072085	0.253323	-0.192273	1.292762	0.034863	-0.096524	1.037298	0.274215	-0.051452	1.044959	0.304270	-0.049067	1.070707	0.293547	-0.091685	1.077986	0.255732	-0.229045	1.147927	0.130129	-0.259788	1.142034	0.078569	-0.261003	1.202879	0.059797	-0.224000	1.217063	0.103639	0.057159	1.274550	0.018640	0.019475	1.222314	0.073166	0.020130	1.271605	0.043012	0.072791	1.225838	0.037411	-0.001790	1.291844	-0.012080	0.019272	1.096191	0.024296	-0.158820	1.265160	0.003750	0.012408	1.243843	0.064327
2794	27.940000	-0.067742	1.368774	-0.103099	-0.085290	1.162456	-0.144497	-0.226222	1.027457	0.132903	-0.205029	1.002454	0.083656	-0.033022	1.024248	0.268807	-0.024876	1.071856	0.250691	-0.192194	1.292657	0.035381	-0.092627	1.037404	0.272953	-0.046873	1.045054	0.302147	-0.044725	1.070721	0.291368	-0.087836	1.078011	0.254152	-0.227527	1.147870	0.131343	-0.258991	1.142043	0.080120	-0.260351	1.202916	0.061497	-0.222539	1.216940	0.104738	0.057147	1.274434	0.018291	0.019686	1.222349	0.073056	0.020261	1.271628	0.042853	0.072931	1.225877	0.037137	-0.001862	1.291817	-0.012171	0.019424	1.096196	0.024246	-0.158826	1.265147	0.004166	0.012542	1.243800	0.064419
2795	27.950000	-0.068114	1.368676	-0.103020	-0.085698	1.162330	-0.144259	-0.224876	1.027349	0.133848	-0.204305	1.002387	0.084319	-0.029249	1.024096	0.266570	-0.021248	1.071611	0.248146	-0.192101	1.292574	0.035884	-0.088700	1.037500	0.271627	-0.042636	1.045136	0.300117	-0.040550	1.070746	0.289119	-0.084113	1.078016	0.252528	-0.226010	1.147701	0.132387	-0.258128	1.142028	0.081653	-0.259704	1.202919	0.063110	-0.221324	1.216845	0.105861	0.057279	1.274459	0.018011	0.019896	1.222383	0.072930	0.020413	1.271637	0.042697	0.073038	1.225889	0.036815	-0.001917	1.291795	-0.012259	0.019570	1.096203	0.024191	-0.158837	1.265135	0.004587	0.012836	1.243688	0.064338
2796	27.960000	-0.068446	1.368604	-0.102940	-0.086092	1.162234	-0.144034	-0.223518	1.027203	0.134713	-0.203539	1.002297	0.084914	-0.025682	1.023925	0.264421	-0.017818	1.071346	0.245700	-0.191992	1.292526	0.036371	-0.084466	1.037121	0.269910	-0.038455	1.045152	0.297984	-0.036422	1.070548	0.286771	-0.080584	1.077919	0.250915	-0.224547	1.147552	0.133494	-0.257214	1.141946	0.083039	-0.259031	1.202848	0.064667	-0.220236	1.216619	0.107089	0.057386	1.274453	0.017737	0.020180	1.222425	0.072762	0.020520	1.271655	0.042562	0.073251	1.225852	0.036477	-0.001954	1.291782	-0.012344	0.019702	1.096212	0.024128	-0.158854	1.265128	0.005013	0.013076	1.243805	0.064102
2797	27.970000	-0.068738	1.368555	-0.102858	-0.086467	1.162167	-0.143824	-0.222156	1.027023	0.135498	-0.202736	1.002186	0.085443	-0.022321	1.023735	0.262377	-0.014589	1.071066	0.243375	-0.191868	1.292508	0.036837	-0.081141	1.037284	0.268621	-0.034555	1.045099	0.295978	-0.032200	1.070344	0.284255	-0.077276	1.077794	0.249431	-0.223125	1.147336	0.134413	-0.256389	1.141848	0.084374	-0.258383	1.202784	0.066111	-0.219117	1.216487	0.108098	0.057460	1.274432	0.017480	0.020412	1.222467	0.072639	0.020644	1.271677	0.042415	0.073325	1.225896	0.036217	-0.001971	1.291779	-0.012426	0.019824	1.096227	0.024056	-0.158877	1.265126	0.005442	0.013230	1.243745	0.064137
2798	27.980000	-0.068988	1.368534	-0.102775	-0.086824	1.162134	-0.143631	-0.220796	1.026810	0.136202	-0.201901	1.002056	0.085906	-0.019168	1.023526	0.260447	-0.011561	1.070771	0.241184	-0.191728	1.292525	0.037283	-0.077880	1.037185	0.267363	-0.030919	1.044947	0.294092	-0.028791	1.070185	0.282328	-0.074327	1.077599	0.248107	-0.221819	1.147156	0.135341	-0.255642	1.141724	0.085586	-0.257820	1.202682	0.067473	-0.218063	1.216296	0.109106	0.057535	1.274451	0.017250	0.020654	1.222456	0.072528	0.020852	1.271711	0.042305	0.073465	1.225913	0.035956	-0.001968	1.291787	-0.012506	0.019934	1.096246	0.023973	-0.158908	1.265129	0.005872	0.013473	1.243800	0.064002
2799	27.990000	-0.069197	1.368542	-0.102691	-0.087164	1.162134	-0.143455	-0.219447	1.026569	0.136824	-0.201039	1.001910	0.086302	-0.016224	1.023298	0.258640	-0.008737	1.070464	0.239137	-0.191573	1.292576	0.037709	-0.074899	1.037088	0.266285	-0.027536	1.044785	0.292341	-0.025461	1.069900	0.280431	-0.071587	1.077363	0.246934	-0.220562	1.146922	0.136120	-0.254912	1.141565	0.086701	-0.257233	1.202580	0.068776	-0.217176	1.216153	0.109943	0.057541	1.274381	0.016967	0.020869	1.222482	0.072439	0.021028	1.271759	0.042204	0.073613	1.225939	0.035683	-0.001947	1.291807	-0.012583	0.020031	1.096271	0.023880	-0.158943	1.265139	0.006304	0.013679	1.243827	0.063929
2800	28.000000	-0.069373	1.368573	-0.102605	-0.087484	1.162163	-0.143294	-0.218121	1.026305	0.137372	-0.200161	1.001751	0.086637	-0.013483	1.023055	0.256965	-0.006115	1.070152	0.237249	-0.191407	1.292652	0.038116	-0.072051	1.036822	0.265216	-0.024427	1.044448	0.290769	-0.022542	1.069658	0.278862	-0.068666	1.077138	0.245592	-0.219378	1.146667	0.136868	-0.254210	1.141340	0.087706	-0.256681	1.202381	0.069880	-0.216233	1.215912	0.110813	0.057600	1.274383	0.016722	0.021128	1.222537	0.072322	0.021179	1.271791	0.042066	0.073749	1.225973	0.035435	-0.001908	1.291837	-0.012657	0.020122	1.096302	0.023777	-0.158984	1.265154	0.006734	0.013925	1.243884	0.063713
2801	28.010000	-0.069516	1.368628	-0.102517	-0.087791	1.162221	-0.143147	-0.216826	1.026025	0.137845	-0.199276	1.001584	0.086913	-0.010948	1.022798	0.255422	-0.003696	1.069834	0.235519	-0.191229	1.292754	0.038508	-0.069397	1.036619	0.264167	-0.021470	1.044245	0.289312	-0.019702	1.069392	0.277326	-0.066306	1.076874	0.244618	-0.218232	1.146418	0.137533	-0.253549	1.141122	0.088726	-0.256139	1.202195	0.070915	-0.215449	1.215698	0.111532	0.057798	1.274504	0.016537	0.021376	1.222604	0.072219	0.021329	1.271833	0.041954	0.073905	1.226007	0.035178	-0.001855	1.291877	-0.012729	0.020204	1.096338	0.023665	-0.159026	1.265177	0.007164	0.013996	1.244034	0.063604
2802	28.020000	-0.069637	1.368699	-0.102425	-0.088080	1.162298	-0.143011	-0.215576	1.025735	0.138253	-0.198397	1.001413	0.087138	-0.008614	1.022533	0.254017	-0.001477	1.069520	0.233958	-0.191043	1.292869	0.038887	-0.066824	1.036177	0.263167	-0.018864	1.043951	0.288005	-0.017173	1.069146	0.275961	-0.063993	1.076616	0.243655	-0.217180	1.146139	0.138157	-0.252897	1.140892	0.089607	-0.255630	1.201933	0.071974	-0.214658	1.215498	0.112302	0.058127	1.274760	0.016388	0.021614	1.222682	0.072126	0.021491	1.271860	0.041835	0.074051	1.226041	0.034922	-0.001791	1.291925	-0.012797	0.020285	1.096378	0.023546	-0.159068	1.265205	0.007591	0.014240	1.244043	0.063519
2803	28.030000	-0.069741	1.368782	-0.102331	-0.088356	1.162390	-0.142882	-0.214382	1.025442	0.138603	-0.197536	1.001242	0.087319	-0.006479	1.022262	0.252750	0.000545	1.069210	0.232561	-0.190851	1.292992	0.039257	-0.064435	1.035856	0.262205	-0.016450	1.043767	0.286785	-0.014747	1.068966	0.274677	-0.061936	1.076386	0.242788	-0.216169	1.145874	0.138796	-0.252247	1.140645	0.090452	-0.255180	1.201748	0.072944	-0.213933	1.215279	0.113155	0.058197	1.274758	0.016182	0.021865	1.222715	0.071996	0.021665	1.271880	0.041698	0.074183	1.226066	0.034684	-0.001720	1.291978	-0.012862	0.020366	1.096421	0.023422	-0.159107	1.265239	0.008012	0.014492	1.244065	0.063415
2804	28.040000	-0.069836	1.368871	-0.102232	-0.088622	1.162490	-0.142759	-0.213253	1.025152	0.138901	-0.196706	1.001075	0.087462	-0.004542	1.021989	0.251618	0.002373	1.068908	0.231324	-0.190657	1.293116	0.039621	-0.062482	1.035717	0.261475	-0.014275	1.043641	0.285658	-0.012583	1.068792	0.273467	-0.060042	1.076205	0.241951	-0.215202	1.145600	0.139379	-0.251297	1.140483	0.091292	-0.254638	1.201491	0.073833	-0.213230	1.215024	0.113765	0.058269	1.274756	0.015998	0.022083	1.222729	0.071900	0.021946	1.271997	0.041554	0.074344	1.226084	0.034432	-0.001643	1.292034	-0.012923	0.020448	1.096466	0.023296	-0.159138	1.265279	0.008429	0.014714	1.244085	0.063316
2805	28.050000	-0.069932	1.368959	-0.102130	-0.088875	1.162588	-0.142636	-0.212201	1.024873	0.139159	-0.195921	1.000916	0.087578	-0.002798	1.021721	0.250623	0.004014	1.068620	0.230247	-0.190464	1.293230	0.039982	-0.060707	1.035692	0.260819	-0.012349	1.043556	0.284681	-0.010756	1.068618	0.272362	-0.058182	1.076095	0.241002	-0.214283	1.145310	0.139860	-0.250613	1.140275	0.092037	-0.254183	1.201312	0.074655	-0.212542	1.214844	0.114385	0.058439	1.274812	0.015820	0.022348	1.222759	0.071754	0.022126	1.272045	0.041426	0.074505	1.226115	0.034183	-0.001567	1.292090	-0.012979	0.020539	1.096511	0.023171	-0.159161	1.265320	0.008837	0.014968	1.244096	0.063202
2806	28.060000	-0.070030	1.369043	-0.102024	-0.089122	1.162682	-0.142511	-0.211233	1.024608	0.139381	-0.195189	1.000769	0.087672	-0.001249	1.021458	0.249760	0.005470	1.068341	0.229315	-0.190274	1.293332	0.040342	-0.059151	1.035708	0.260215	-0.010727	1.043517	0.283909	-0.009105	1.068556	0.271416	-0.056668	1.075980	0.240218	-0.213459	1.145042	0.140361	-0.249977	1.140029	0.092701	-0.253714	1.201079	0.075473	-0.211856	1.214583	0.114937	0.058679	1.274916	0.015673	0.022604	1.222779	0.071634	0.022289	1.272066	0.041315	0.074698	1.226171	0.033889	-0.001494	1.292145	-0.013030	0.020635	1.096555	0.023050	-0.159172	1.265366	0.009236	0.015193	1.244063	0.063114
2807	28.070000	-0.070140	1.369114	-0.101914	-0.089359	1.162761	-0.142381	-0.210358	1.024364	0.139577	-0.194523	1.000634	0.087754	0.000109	1.021207	0.249028	0.006751	1.068075	0.228526	-0.190091	1.293412	0.040704	-0.057788	1.035765	0.259676	-0.009255	1.043574	0.283157	-0.007670	1.068564	0.270581	-0.055246	1.075869	0.239478	-0.212667	1.144785	0.140808	-0.249441	1.139862	0.093318	-0.253323	1.200919	0.076213	-0.211257	1.214364	0.115477	0.058879	1.274972	0.015508	0.022824	1.222810	0.071541	0.022455	1.272091	0.041203	0.074881	1.226210	0.033652	-0.001427	1.292193	-0.013077	0.020742	1.096596	0.022935	-0.159169	1.265411	0.009624	0.015415	1.244111	0.063061
2808	28.080000	-0.070264	1.369170	-0.101801	-0.089591	1.162822	-0.142244	-0.209580	1.024142	0.139754	-0.193930	1.000515	0.087828	0.001278	1.020970	0.248426	0.007860	1.067821	0.227867	-0.189917	1.293469	0.041067	-0.056713	1.035739	0.259297	-0.008006	1.043505	0.282573	-0.006391	1.068453	0.269941	-0.054069	1.075752	0.238867	-0.211979	1.144528	0.141207	-0.248941	1.139651	0.093843	-0.252980	1.200768	0.076910	-0.210759	1.214165	0.115933	0.059022	1.275032	0.015355	0.023022	1.222820	0.071449	0.022611	1.272110	0.041114	0.075056	1.226240	0.033430	-0.001368	1.292235	-0.013118	0.020858	1.096632	0.022830	-0.159150	1.265457	0.010000	0.015655	1.244105	0.062981
